<svg xmlns="http://www.w3.org/2000/svg" xmlns:xlink="http://www.w3.org/1999/xlink" id="Layer_1" x="0px" y="0px" viewBox="0 0 195 120" style="enable-background:new 0 0 195 120;" xml:space="preserve"><style type="text/css">	.st0{fill:#FFFFFF;}</style><path d="M3.2,52.4c0-19.3,15.7-35,35-35s35,15.7,35,35s-15.7,35-35,35C18.9,87.2,3.2,71.6,3.2,52.4z"></path><path class="st0" d="M48.5,31.6l-8.6,25.8l4,11.7c1.5-4.6,6.3-18.5,6.7-19.3c0,8,0,23.7,0,23.7h8.8V31.6H48.5z"></path><path class="st0" d="M28.1,31.6H17.4v41.9h8.8c0,0,0-15.7,0-23.7c0.4,1.1,8.2,23.7,8.2,23.7h7.8L28.1,31.6z"></path><path d="M135.9,95.7c-1.9,1.1-2.7,1.5-3.8,1.9c-0.8,0.2-1.5,0.4-2.3,0.4c-1.9,0-3.4-1-4.4-2.3c-0.4-0.8-0.6-1.3-0.6-2.9 c0.4,0,13.4,0,13.4,0v-2.3c0-5.5-3.4-9.2-8.6-9.2c-5.9,0-10.3,4.8-10.3,11.1c0,6.1,3.8,10.1,9.9,10.1c2.3,0,4.6-0.4,6.7-1.3 c0.4-0.2,1.1-0.6,2.1-1.1h0.2L135.9,95.7z M129.2,85.1c2.3,0,3.3,1.1,3.4,4h-7.5C125.6,86.7,126.9,85.1,129.2,85.1z M101.5,94.1 l-6.9-20.3h-7.3v27.9h5.4c0,0,0-12.2,0-17.6c0.4,0.8,6.3,17.6,6.3,17.6h5.4c2.1-6.1,5.9-16.8,6.3-17.4c0,1.9,0,17.4,0,17.4h5.4V73.9 h-7.6L101.5,94.1z M152.4,95.9c-1.5,1-2.3,1.3-2.9,1.3s-1-0.4-1-2.7c0,0,0-8.4,0-8.6c0.2,0,4.4,0,4.4,0v-4c0,0-4,0-4.4,0v-6.1 c0-0.4-0.2-0.8-0.2-0.8l-5,0.8c0,0,0,5.9,0,6.1c-0.2,0-3.1,0.6-3.1,0.6v3.4c0,0,2.7,0,3.1,0c0,0.4,0,12.2,0,12.2 c0,3.1,1.3,4.4,4,4.4c1.3,0,3.1-0.4,4.6-1.3l0.6-0.4l1.3-0.8v-0.2L152.4,95.9z M166.9,81.3c-1.5,0-2.7,1.1-4.6,4.2 c0-0.8-0.2-4-0.2-4h-4.8v20.3h5.5v-9.4c0-1.5,0.4-2.5,1.3-3.6c0.8-1,1.7-1.5,2.5-1.5c0.6,0,1,0.2,1.5,0.6l0.2,0.2l1.7-5.2 C168.8,81.9,167.9,81.3,166.9,81.3z M181.4,81.1c-5.9,0-10.3,4.6-10.3,10.5c0,6.1,4.4,10.7,10.3,10.7c5.9,0,10.3-4.6,10.3-10.7 C191.8,85.7,187.4,81.1,181.4,81.1z M181.4,98c-2.5,0-4.6-2.9-4.6-6.3c0-3.4,2.1-6.3,4.6-6.3c2.5,0,4.6,2.9,4.6,6.3 C186,95.1,183.9,98,181.4,98z"></path></svg>
